<svg width="362" height="82" viewBox="0 0 362 82" fill="none" xmlns="http://www.w3.org/2000/svg">
<path d="M20.412 1.728V6.66H13.716V27H7.56V6.66H0.864V1.728H20.412ZM29.6575 10.26C30.3775 9.156 31.2775 8.292 32.3575 7.668C33.4375 7.02 34.6375 6.696 35.9575 6.696V13.212H34.2655C32.7295 13.212 31.5775 13.548 30.8095 14.22C30.0415 14.868 29.6575 16.02 29.6575 17.676V27H23.5015V6.912H29.6575V10.26ZM37.676 16.92C37.676 14.856 38.06 13.044 38.828 11.484C39.62 9.924 40.688 8.724 42.032 7.884C43.376 7.044 44.876 6.624 46.532 6.624C47.948 6.624 49.184 6.912 50.24 7.488C51.32 8.064 52.148 8.82 52.724 9.756V6.912H58.88V27H52.724V24.156C52.124 25.092 51.284 25.848 50.204 26.424C49.148 27 47.912 27.288 46.496 27.288C44.864 27.288 43.376 26.868 42.032 26.028C40.688 25.164 39.62 23.952 38.828 22.392C38.06 20.808 37.676 18.984 37.676 16.92ZM52.724 16.956C52.724 15.42 52.292 14.208 51.428 13.32C50.588 12.432 49.556 11.988 48.332 11.988C47.108 11.988 46.064 12.432 45.2 13.32C44.36 14.184 43.94 15.384 43.94 16.92C43.94 18.456 44.36 19.68 45.2 20.592C46.064 21.48 47.108 21.924 48.332 21.924C49.556 21.924 50.588 21.48 51.428 20.592C52.292 19.704 52.724 18.492 52.724 16.956ZM62.1096 16.956C62.1096 14.868 62.5296 13.044 63.3696 11.484C64.2336 9.924 65.4216 8.724 66.9336 7.884C68.4696 7.044 70.2216 6.624 72.1896 6.624C74.7096 6.624 76.8096 7.284 78.4896 8.604C80.1936 9.924 81.3096 11.784 81.8376 14.184H75.2856C74.7336 12.648 73.6656 11.88 72.0816 11.88C70.9536 11.88 70.0536 12.324 69.3816 13.212C68.7096 14.076 68.3736 15.324 68.3736 16.956C68.3736 18.588 68.7096 19.848 69.3816 20.736C70.0536 21.6 70.9536 22.032 72.0816 22.032C73.6656 22.032 74.7336 21.264 75.2856 19.728H81.8376C81.3096 22.08 80.1936 23.928 78.4896 25.272C76.7856 26.616 74.6856 27.288 72.1896 27.288C70.2216 27.288 68.4696 26.868 66.9336 26.028C65.4216 25.188 64.2336 23.988 63.3696 22.428C62.5296 20.868 62.1096 19.044 62.1096 16.956ZM97.4064 27L91.2864 18.576V27H85.1304V0.36H91.2864V15.084L97.3704 6.912H104.966L96.6144 16.992L105.038 27H97.4064ZM113.789 16.92C113.789 14.856 114.173 13.044 114.941 11.484C115.733 9.924 116.801 8.724 118.145 7.884C119.489 7.044 120.989 6.624 122.645 6.624C124.061 6.624 125.297 6.912 126.353 7.488C127.433 8.064 128.261 8.82 128.837 9.756V6.912H134.993V27H128.837V24.156C128.237 25.092 127.397 25.848 126.317 26.424C125.261 27 124.025 27.288 122.609 27.288C120.977 27.288 119.489 26.868 118.145 26.028C116.801 25.164 115.733 23.952 114.941 22.392C114.173 20.808 113.789 18.984 113.789 16.92ZM128.837 16.956C128.837 15.42 128.405 14.208 127.541 13.32C126.701 12.432 125.669 11.988 124.445 11.988C123.221 11.988 122.177 12.432 121.313 13.32C120.473 14.184 120.053 15.384 120.053 16.92C120.053 18.456 120.473 19.68 121.313 20.592C122.177 21.48 123.221 21.924 124.445 21.924C125.669 21.924 126.701 21.48 127.541 20.592C128.405 19.704 128.837 18.492 128.837 16.956ZM145.603 0.36V27H139.447V0.36H145.603ZM156.22 0.36V27H150.064V0.36H156.22ZM188.83 6.912L176.23 36.54H169.606L174.214 26.316L166.042 6.912H172.918L177.562 19.476L182.17 6.912H188.83ZM200.2 27.288C198.232 27.288 196.456 26.868 194.872 26.028C193.312 25.188 192.076 23.988 191.164 22.428C190.276 20.868 189.832 19.044 189.832 16.956C189.832 14.892 190.288 13.08 191.2 11.52C192.112 9.936 193.36 8.724 194.944 7.884C196.528 7.044 198.304 6.624 200.272 6.624C202.24 6.624 204.016 7.044 205.6 7.884C207.184 8.724 208.432 9.936 209.344 11.52C210.256 13.08 210.712 14.892 210.712 16.956C210.712 19.02 210.244 20.844 209.308 22.428C208.396 23.988 207.136 25.188 205.528 26.028C203.944 26.868 202.168 27.288 200.2 27.288ZM200.2 21.96C201.376 21.96 202.372 21.528 203.188 20.664C204.028 19.8 204.448 18.564 204.448 16.956C204.448 15.348 204.04 14.112 203.224 13.248C202.432 12.384 201.448 11.952 200.272 11.952C199.072 11.952 198.076 12.384 197.284 13.248C196.492 14.088 196.096 15.324 196.096 16.956C196.096 18.564 196.48 19.8 197.248 20.664C198.04 21.528 199.024 21.96 200.2 21.96ZM233.814 6.912V27H227.658V24.264C227.034 25.152 226.182 25.872 225.102 26.424C224.046 26.952 222.87 27.216 221.574 27.216C220.038 27.216 218.682 26.88 217.506 26.208C216.33 25.512 215.418 24.516 214.77 23.22C214.122 21.924 213.798 20.4 213.798 18.648V6.912H219.918V17.82C219.918 19.164 220.266 20.208 220.962 20.952C221.658 21.696 222.594 22.068 223.77 22.068C224.97 22.068 225.918 21.696 226.614 20.952C227.31 20.208 227.658 19.164 227.658 17.82V6.912H233.814ZM244.392 10.26C245.112 9.156 246.012 8.292 247.092 7.668C248.172 7.02 249.372 6.696 250.692 6.696V13.212H249C247.464 13.212 246.312 13.548 245.544 14.22C244.776 14.868 244.392 16.02 244.392 17.676V27H238.236V6.912H244.392V10.26ZM19.9409 66.024H16.6289V81H10.4729V66.024H8.24091V60.912H10.4729V60.336C10.4729 57.864 11.1809 55.992 12.5969 54.72C14.0129 53.424 16.0889 52.776 18.8249 52.776C19.2809 52.776 19.6169 52.788 19.8329 52.812V58.032C18.6569 57.96 17.8289 58.128 17.3489 58.536C16.8689 58.944 16.6289 59.676 16.6289 60.732V60.912H19.9409V66.024ZM25.9296 58.824C24.8496 58.824 23.9616 58.512 23.2656 57.888C22.5936 57.24 22.2576 56.448 22.2576 55.512C22.2576 54.552 22.5936 53.76 23.2656 53.136C23.9616 52.488 24.8496 52.164 25.9296 52.164C26.9856 52.164 27.8496 52.488 28.5216 53.136C29.2176 53.76 29.5656 54.552 29.5656 55.512C29.5656 56.448 29.2176 57.24 28.5216 57.888C27.8496 58.512 26.9856 58.824 25.9296 58.824ZM28.9896 60.912V81H22.8336V60.912H28.9896ZM45.6908 60.696C48.0428 60.696 49.9148 61.464 51.3068 63C52.7228 64.512 53.4308 66.6 53.4308 69.264V81H47.3108V70.092C47.3108 68.748 46.9628 67.704 46.2668 66.96C45.5708 66.216 44.6348 65.844 43.4588 65.844C42.2828 65.844 41.3468 66.216 40.6508 66.96C39.9548 67.704 39.6068 68.748 39.6068 70.092V81H33.4508V60.912H39.6068V63.576C40.2308 62.688 41.0708 61.992 42.1268 61.488C43.1828 60.96 44.3708 60.696 45.6908 60.696ZM56.4846 70.92C56.4846 68.856 56.8686 67.044 57.6366 65.484C58.4286 63.924 59.4966 62.724 60.8406 61.884C62.1846 61.044 63.6846 60.624 65.3406 60.624C66.7566 60.624 67.9926 60.912 69.0486 61.488C70.1286 62.064 70.9566 62.82 71.5326 63.756V60.912H77.6886V81H71.5326V78.156C70.9326 79.092 70.0926 79.848 69.0126 80.424C67.9566 81 66.7206 81.288 65.3046 81.288C63.6726 81.288 62.1846 80.868 60.8406 80.028C59.4966 79.164 58.4286 77.952 57.6366 76.392C56.8686 74.808 56.4846 72.984 56.4846 70.92ZM71.5326 70.956C71.5326 69.42 71.1006 68.208 70.2366 67.32C69.3966 66.432 68.3646 65.988 67.1406 65.988C65.9166 65.988 64.8726 66.432 64.0086 67.32C63.1686 68.184 62.7486 69.384 62.7486 70.92C62.7486 72.456 63.1686 73.68 64.0086 74.592C64.8726 75.48 65.9166 75.924 67.1406 75.924C68.3646 75.924 69.3966 75.48 70.2366 74.592C71.1006 73.704 71.5326 72.492 71.5326 70.956ZM94.3822 60.696C96.7342 60.696 98.6062 61.464 99.9982 63C101.414 64.512 102.122 66.6 102.122 69.264V81H96.0022V70.092C96.0022 68.748 95.6542 67.704 94.9582 66.96C94.2622 66.216 93.3262 65.844 92.1502 65.844C90.9742 65.844 90.0382 66.216 89.3422 66.96C88.6462 67.704 88.2982 68.748 88.2982 70.092V81H82.1422V60.912H88.2982V63.576C88.9222 62.688 89.7622 61.992 90.8182 61.488C91.8742 60.96 93.0622 60.696 94.3822 60.696ZM105.176 70.956C105.176 68.868 105.596 67.044 106.436 65.484C107.3 63.924 108.488 62.724 110 61.884C111.536 61.044 113.288 60.624 115.256 60.624C117.776 60.624 119.876 61.284 121.556 62.604C123.26 63.924 124.376 65.784 124.904 68.184H118.352C117.8 66.648 116.732 65.88 115.148 65.88C114.02 65.88 113.12 66.324 112.448 67.212C111.776 68.076 111.44 69.324 111.44 70.956C111.44 72.588 111.776 73.848 112.448 74.736C113.12 75.6 114.02 76.032 115.148 76.032C116.732 76.032 117.8 75.264 118.352 73.728H124.904C124.376 76.08 123.26 77.928 121.556 79.272C119.852 80.616 117.752 81.288 115.256 81.288C113.288 81.288 111.536 80.868 110 80.028C108.488 79.188 107.3 77.988 106.436 76.428C105.596 74.868 105.176 73.044 105.176 70.956ZM147.133 70.632C147.133 71.208 147.097 71.808 147.025 72.432H133.093C133.189 73.68 133.585 74.64 134.281 75.312C135.001 75.96 135.877 76.284 136.909 76.284C138.445 76.284 139.513 75.636 140.113 74.34H146.665C146.329 75.66 145.717 76.848 144.829 77.904C143.965 78.96 142.873 79.788 141.553 80.388C140.233 80.988 138.757 81.288 137.125 81.288C135.157 81.288 133.405 80.868 131.869 80.028C130.333 79.188 129.133 77.988 128.269 76.428C127.405 74.868 126.973 73.044 126.973 70.956C126.973 68.868 127.393 67.044 128.233 65.484C129.097 63.924 130.297 62.724 131.833 61.884C133.369 61.044 135.133 60.624 137.125 60.624C139.069 60.624 140.797 61.032 142.309 61.848C143.821 62.664 144.997 63.828 145.837 65.34C146.701 66.852 147.133 68.616 147.133 70.632ZM140.833 69.012C140.833 67.956 140.473 67.116 139.753 66.492C139.033 65.868 138.133 65.556 137.053 65.556C136.021 65.556 135.145 65.856 134.425 66.456C133.729 67.056 133.297 67.908 133.129 69.012H140.833ZM158.552 81.288C156.8 81.288 155.24 80.988 153.872 80.388C152.504 79.788 151.424 78.972 150.632 77.94C149.84 76.884 149.396 75.708 149.3 74.412H155.384C155.456 75.108 155.78 75.672 156.356 76.104C156.932 76.536 157.64 76.752 158.48 76.752C159.248 76.752 159.836 76.608 160.244 76.32C160.676 76.008 160.892 75.612 160.892 75.132C160.892 74.556 160.592 74.136 159.992 73.872C159.392 73.584 158.42 73.272 157.076 72.936C155.636 72.6 154.436 72.252 153.476 71.892C152.516 71.508 151.688 70.92 150.992 70.128C150.296 69.312 149.948 68.22 149.948 66.852C149.948 65.7 150.26 64.656 150.884 63.72C151.532 62.76 152.468 62.004 153.692 61.452C154.94 60.9 156.416 60.624 158.12 60.624C160.64 60.624 162.62 61.248 164.06 62.496C165.524 63.744 166.364 65.4 166.58 67.464H160.892C160.796 66.768 160.484 66.216 159.956 65.808C159.452 65.4 158.78 65.196 157.94 65.196C157.22 65.196 156.668 65.34 156.284 65.628C155.9 65.892 155.708 66.264 155.708 66.744C155.708 67.32 156.008 67.752 156.608 68.04C157.232 68.328 158.192 68.616 159.488 68.904C160.976 69.288 162.188 69.672 163.124 70.056C164.06 70.416 164.876 71.016 165.572 71.856C166.292 72.672 166.664 73.776 166.688 75.168C166.688 76.344 166.352 77.4 165.68 78.336C165.032 79.248 164.084 79.968 162.836 80.496C161.612 81.024 160.184 81.288 158.552 81.288ZM206.92 60.912L201.484 81H194.68L191.512 67.968L188.236 81H181.468L175.996 60.912H182.152L184.996 75.276L188.38 60.912H194.896L198.316 75.204L201.124 60.912H206.92ZM212.363 58.824C211.283 58.824 210.395 58.512 209.699 57.888C209.027 57.24 208.691 56.448 208.691 55.512C208.691 54.552 209.027 53.76 209.699 53.136C210.395 52.488 211.283 52.164 212.363 52.164C213.419 52.164 214.283 52.488 214.955 53.136C215.651 53.76 215.999 54.552 215.999 55.512C215.999 56.448 215.651 57.24 214.955 57.888C214.283 58.512 213.419 58.824 212.363 58.824ZM215.423 60.912V81H209.267V60.912H215.423ZM231.08 75.78V81H227.948C225.716 81 223.976 80.46 222.728 79.38C221.48 78.276 220.856 76.488 220.856 74.016V66.024H218.408V60.912H220.856V56.016H227.012V60.912H231.044V66.024H227.012V74.088C227.012 74.688 227.156 75.12 227.444 75.384C227.732 75.648 228.212 75.78 228.884 75.78H231.08ZM246.857 60.696C249.161 60.696 251.009 61.464 252.401 63C253.793 64.512 254.489 66.6 254.489 69.264V81H248.369V70.092C248.369 68.748 248.021 67.704 247.325 66.96C246.629 66.216 245.693 65.844 244.517 65.844C243.341 65.844 242.405 66.216 241.709 66.96C241.013 67.704 240.665 68.748 240.665 70.092V81H234.509V54.36H240.665V63.612C241.289 62.724 242.141 62.016 243.221 61.488C244.301 60.96 245.513 60.696 246.857 60.696ZM358.151 81.288C357.071 81.288 356.183 80.976 355.487 80.352C354.815 79.704 354.479 78.912 354.479 77.976C354.479 77.016 354.815 76.212 355.487 75.564C356.183 74.916 357.071 74.592 358.151 74.592C359.207 74.592 360.071 74.916 360.743 75.564C361.439 76.212 361.787 77.016 361.787 77.976C361.787 78.912 361.439 79.704 360.743 80.352C360.071 80.976 359.207 81.288 358.151 81.288Z" fill="white"/>
<path d="M285.332 70.632C285.332 71.208 285.296 71.808 285.224 72.432H271.292C271.388 73.68 271.784 74.64 272.48 75.312C273.2 75.96 274.076 76.284 275.108 76.284C276.644 76.284 277.712 75.636 278.312 74.34H284.864C284.528 75.66 283.916 76.848 283.028 77.904C282.164 78.96 281.072 79.788 279.752 80.388C278.432 80.988 276.956 81.288 275.324 81.288C273.356 81.288 271.604 80.868 270.068 80.028C268.532 79.188 267.332 77.988 266.468 76.428C265.604 74.868 265.172 73.044 265.172 70.956C265.172 68.868 265.592 67.044 266.432 65.484C267.296 63.924 268.496 62.724 270.032 61.884C271.568 61.044 273.332 60.624 275.324 60.624C277.268 60.624 278.996 61.032 280.508 61.848C282.02 62.664 283.196 63.828 284.036 65.34C284.9 66.852 285.332 68.616 285.332 70.632ZM279.032 69.012C279.032 67.956 278.672 67.116 277.952 66.492C277.232 65.868 276.332 65.556 275.252 65.556C274.22 65.556 273.344 65.856 272.624 66.456C271.928 67.056 271.496 67.908 271.328 69.012H279.032ZM287.356 70.92C287.356 68.856 287.74 67.044 288.508 65.484C289.3 63.924 290.368 62.724 291.712 61.884C293.056 61.044 294.556 60.624 296.212 60.624C297.628 60.624 298.864 60.912 299.92 61.488C301 62.064 301.828 62.82 302.404 63.756V60.912H308.56V81H302.404V78.156C301.804 79.092 300.964 79.848 299.884 80.424C298.828 81 297.592 81.288 296.176 81.288C294.544 81.288 293.056 80.868 291.712 80.028C290.368 79.164 289.3 77.952 288.508 76.392C287.74 74.808 287.356 72.984 287.356 70.92ZM302.404 70.956C302.404 69.42 301.972 68.208 301.108 67.32C300.268 66.432 299.236 65.988 298.012 65.988C296.788 65.988 295.744 66.432 294.88 67.32C294.04 68.184 293.62 69.384 293.62 70.92C293.62 72.456 294.04 73.68 294.88 74.592C295.744 75.48 296.788 75.924 298.012 75.924C299.236 75.924 300.268 75.48 301.108 74.592C301.972 73.704 302.404 72.492 302.404 70.956ZM321.185 81.288C319.433 81.288 317.873 80.988 316.505 80.388C315.137 79.788 314.057 78.972 313.265 77.94C312.473 76.884 312.029 75.708 311.933 74.412H318.017C318.089 75.108 318.413 75.672 318.989 76.104C319.565 76.536 320.273 76.752 321.113 76.752C321.881 76.752 322.469 76.608 322.877 76.32C323.309 76.008 323.525 75.612 323.525 75.132C323.525 74.556 323.225 74.136 322.625 73.872C322.025 73.584 321.053 73.272 319.709 72.936C318.269 72.6 317.069 72.252 316.109 71.892C315.149 71.508 314.321 70.92 313.625 70.128C312.929 69.312 312.581 68.22 312.581 66.852C312.581 65.7 312.893 64.656 313.517 63.72C314.165 62.76 315.101 62.004 316.325 61.452C317.573 60.9 319.049 60.624 320.753 60.624C323.273 60.624 325.253 61.248 326.693 62.496C328.157 63.744 328.997 65.4 329.213 67.464H323.525C323.429 66.768 323.117 66.216 322.589 65.808C322.085 65.4 321.413 65.196 320.573 65.196C319.853 65.196 319.301 65.34 318.917 65.628C318.533 65.892 318.341 66.264 318.341 66.744C318.341 67.32 318.641 67.752 319.241 68.04C319.865 68.328 320.825 68.616 322.121 68.904C323.609 69.288 324.821 69.672 325.757 70.056C326.693 70.416 327.509 71.016 328.205 71.856C328.925 72.672 329.297 73.776 329.321 75.168C329.321 76.344 328.985 77.4 328.313 78.336C327.665 79.248 326.717 79.968 325.469 80.496C324.245 81.024 322.817 81.288 321.185 81.288ZM352.023 70.632C352.023 71.208 351.987 71.808 351.915 72.432H337.983C338.079 73.68 338.475 74.64 339.171 75.312C339.891 75.96 340.767 76.284 341.799 76.284C343.335 76.284 344.403 75.636 345.003 74.34H351.555C351.219 75.66 350.607 76.848 349.719 77.904C348.855 78.96 347.763 79.788 346.443 80.388C345.123 80.988 343.647 81.288 342.015 81.288C340.047 81.288 338.295 80.868 336.759 80.028C335.223 79.188 334.023 77.988 333.159 76.428C332.295 74.868 331.863 73.044 331.863 70.956C331.863 68.868 332.283 67.044 333.123 65.484C333.987 63.924 335.187 62.724 336.723 61.884C338.259 61.044 340.023 60.624 342.015 60.624C343.959 60.624 345.687 61.032 347.199 61.848C348.711 62.664 349.887 63.828 350.727 65.34C351.591 66.852 352.023 68.616 352.023 70.632ZM345.723 69.012C345.723 67.956 345.363 67.116 344.643 66.492C343.923 65.868 343.023 65.556 341.943 65.556C340.911 65.556 340.035 65.856 339.315 66.456C338.619 67.056 338.187 67.908 338.019 69.012H345.723Z" fill="#EC615B"/>
</svg>
