<svg width="218" height="37" viewBox="0 0 218 37" fill="none" xmlns="http://www.w3.org/2000/svg">
<path d="M22.766 36.696C22.1473 36.696 21.664 36.638 21.316 36.522C20.2333 36.2513 19.4793 35.652 19.054 34.724C18.6673 33.7573 18.474 32.694 18.474 31.534C18.474 30.4513 18.5707 29.388 18.764 28.344C18.996 27.3 19.1893 26.488 19.344 25.908C17.8747 29.1947 16.0573 31.7467 13.892 33.564C11.7653 35.3813 9.50333 36.29 7.106 36.29C4.86333 36.29 3.22 35.71 2.176 34.55C1.132 33.3513 0.61 31.766 0.61 29.794C0.61 28.2473 0.861333 26.6427 1.364 24.98C1.944 22.892 2.73667 20.7267 3.742 18.484C4.74733 16.2413 5.96533 14.076 7.396 11.988C8.82667 9.9 10.47 8.00533 12.326 6.304C14.2207 4.60266 16.328 3.26866 18.648 2.302C20.968 1.29666 23.5393 0.793997 26.362 0.793997C28.0633 0.793997 29.3973 1.06466 30.364 1.606C31.3693 2.14733 32.0653 2.92066 32.452 3.926C32.6067 4.274 32.684 4.66066 32.684 5.086C32.684 5.666 32.5293 6.11067 32.22 6.42C31.9493 6.69066 31.6787 6.826 31.408 6.826C31.2147 6.826 31.0793 6.71 31.002 6.478C30.9247 5.93667 30.6153 5.51133 30.074 5.202C29.5713 4.89266 28.972 4.68 28.276 4.564C27.58 4.40933 26.9227 4.332 26.304 4.332C24.68 4.332 23.0753 4.89267 21.49 6.014C19.9433 7.09667 18.4933 8.46933 17.14 10.132C15.7867 11.756 14.5687 13.438 13.486 15.178C12.442 16.918 11.5913 18.426 10.934 19.702C10.0833 21.4807 9.368 23.356 8.788 25.328C8.208 27.2613 7.918 28.9433 7.918 30.374C7.918 31.3407 8.07267 32.114 8.382 32.694C8.73 33.2353 9.27133 33.506 10.006 33.506C11.2433 33.4673 12.442 32.7713 13.602 31.418C14.8007 30.0647 15.9993 28.2667 17.198 26.024C18.4353 23.7813 19.692 21.2873 20.968 18.542C22.244 15.7967 23.5587 13.0127 24.912 10.19C25.376 10.2673 25.9947 10.3833 26.768 10.538C27.5413 10.654 28.3147 10.828 29.088 11.06C29.9 11.292 30.5573 11.582 31.06 11.93C31.6013 12.2393 31.872 12.6453 31.872 13.148C31.872 13.4187 31.7947 13.6893 31.64 13.96C30.0933 16.0093 28.7787 18.2713 27.696 20.746C26.652 23.182 25.8593 25.56 25.318 27.88C24.7767 30.1613 24.506 32.1333 24.506 33.796C24.506 34.376 24.622 34.8013 24.854 35.072C25.1247 35.304 25.318 35.4587 25.434 35.536C25.434 35.9613 25.144 36.2513 24.564 36.406C23.984 36.5993 23.3847 36.696 22.766 36.696ZM54.999 36.464C53.0657 36.464 51.751 35.942 51.055 34.898C50.359 33.854 50.011 32.636 50.011 31.244C50.011 30.2 50.127 29.1753 50.359 28.17C50.591 27.126 50.8424 26.2173 51.113 25.444C51.3837 24.632 51.5577 24.0713 51.635 23.762C52.0604 22.486 52.563 21.21 53.143 19.934C53.7617 18.658 54.1677 17.5947 54.361 16.744C53.897 17.1307 53.2784 17.8653 52.505 18.948C51.7317 19.992 50.881 21.21 49.953 22.602C49.0637 23.994 48.213 25.444 47.401 26.952C46.6277 28.4213 45.9704 29.8133 45.429 31.128C44.9264 32.4427 44.675 33.5253 44.675 34.376C44.675 34.9173 44.791 35.3427 45.023 35.652C44.675 35.768 44.327 35.884 43.979 36C43.631 36.0773 43.283 36.116 42.935 36.116C41.5817 36.116 40.6344 35.7487 40.093 35.014C39.5904 34.2793 39.339 33.39 39.339 32.346C39.339 31.07 39.571 29.7167 40.035 28.286C40.5377 26.8553 40.9824 25.6953 41.369 24.806C41.6784 24.11 42.065 23.182 42.529 22.022C43.0317 20.862 43.5344 19.7213 44.037 18.6C44.5784 17.44 45.0424 16.5507 45.429 15.932C45.0037 16.3187 44.3464 17.0533 43.457 18.136C42.6064 19.2187 41.659 20.4947 40.615 21.964C39.571 23.4333 38.5657 24.9607 37.599 26.546C36.6324 28.0927 35.8397 29.562 35.221 30.954C34.6024 32.346 34.293 33.506 34.293 34.434C34.293 35.0527 34.4284 35.4973 34.699 35.768C34.815 35.884 34.873 35.9807 34.873 36.058C34.873 36.2513 34.6604 36.3093 34.235 36.232C33.3457 36.0773 32.4757 35.9227 31.625 35.768C30.7744 35.5747 30.059 35.2073 29.479 34.666C28.9377 34.086 28.667 33.1387 28.667 31.824C28.667 30.78 28.9377 29.5233 29.479 28.054C30.0204 26.546 30.6584 24.9993 31.393 23.414C32.1277 21.8287 32.7657 20.3593 33.307 19.006C33.423 18.6967 33.6164 18.2327 33.887 17.614C34.1577 16.9567 34.4284 16.28 34.699 15.584C35.0084 14.8493 35.2404 14.2113 35.395 13.67C35.5497 13.09 35.5884 12.7033 35.511 12.51C35.4337 12.3553 35.395 12.2393 35.395 12.162C35.395 11.698 35.7044 11.466 36.323 11.466C36.9417 11.466 37.5604 11.5627 38.179 11.756C38.8364 11.9107 39.4164 12.1813 39.919 12.568C40.4604 12.9547 40.8857 13.4187 41.195 13.96C41.5044 14.5013 41.659 15.1007 41.659 15.758C41.659 16.1833 41.5624 16.686 41.369 17.266C41.253 17.614 41.021 18.0973 40.673 18.716C40.3637 19.296 40.0544 19.876 39.745 20.456C39.4744 20.9973 39.3197 21.384 39.281 21.616C39.8997 20.7267 40.5764 19.7407 41.311 18.658C42.0844 17.5753 42.819 16.5507 43.515 15.584C44.2497 14.5787 44.8877 13.728 45.429 13.032C46.009 12.2973 46.4344 11.8333 46.705 11.64C47.1304 11.3307 47.633 11.176 48.213 11.176C49.025 11.176 49.9144 11.408 50.881 11.872C51.5384 12.1427 51.983 12.51 52.215 12.974C52.4857 13.3993 52.621 13.8827 52.621 14.424C52.621 15.1973 52.4084 16.0093 51.983 16.86C51.5964 17.672 51.229 18.4067 50.881 19.064C51.6544 17.9813 52.4277 16.8987 53.201 15.816C54.013 14.7333 54.7477 13.7667 55.405 12.916C56.101 12.0653 56.6617 11.4853 57.087 11.176C57.3964 10.944 57.899 10.828 58.595 10.828C59.407 10.828 60.2384 11.0793 61.089 11.582C61.9397 12.0847 62.365 12.9933 62.365 14.308C62.365 14.8107 62.2684 15.3907 62.075 16.048C61.8817 16.7053 61.5724 17.44 61.147 18.252C59.4844 21.4227 58.2084 24.284 57.319 26.836C56.4297 29.3493 55.985 31.2053 55.985 32.404C55.985 33.2547 56.217 33.68 56.681 33.68C57.2224 33.68 57.8217 33.332 58.479 32.636C59.175 31.94 59.8517 31.1087 60.509 30.142C61.3597 28.9047 62.133 27.59 62.829 26.198C63.5637 24.806 64.0664 23.8393 64.337 23.298C64.453 23.066 64.627 22.95 64.859 22.95C65.091 22.95 65.3037 23.0853 65.4971 23.356C65.729 23.588 65.7677 23.8587 65.613 24.168C65.3424 24.7093 64.9364 25.4633 64.395 26.43C63.8924 27.358 63.3124 28.3827 62.655 29.504C61.9977 30.5867 61.2824 31.6307 60.509 32.636C59.6584 33.7187 58.769 34.6273 57.841 35.362C56.913 36.0967 55.9657 36.464 54.999 36.464ZM69.7533 36.522C67.3946 36.522 65.5966 36.0967 64.3592 35.246C63.1219 34.3953 62.5033 32.926 62.5033 30.838C62.5033 29.4847 62.7353 27.9767 63.1993 26.314C63.6633 24.6513 64.2433 22.9887 64.9393 21.326C65.6353 19.6247 66.3699 18.02 67.1433 16.512C67.9166 15.004 68.6319 13.7087 69.2893 12.626C69.9466 11.5047 70.4299 10.712 70.7393 10.248C71.5126 9.16533 72.3633 8.06333 73.2913 6.942C74.2579 5.82066 75.3213 4.87333 76.4813 4.1C77.6799 3.32666 78.9753 2.94 80.3673 2.94C81.1019 2.94 81.8559 3.07533 82.6293 3.346C83.5186 3.694 83.9633 4.042 83.9633 4.39C83.9633 4.622 83.7699 4.738 83.3833 4.738C83.2286 4.738 82.9966 4.83466 82.6873 5.028C82.4166 5.18266 82.1653 5.376 81.9333 5.608C81.2373 6.304 80.4059 7.29 79.4393 8.566C78.5113 9.842 77.5253 11.2533 76.4813 12.8C75.4759 14.3467 74.5093 15.9513 73.5813 17.614C72.6919 19.238 71.9379 20.7847 71.3193 22.254C73.0206 19.8953 74.5286 17.846 75.8432 16.106C77.1966 14.3273 78.5886 12.8967 80.0193 11.814C80.4446 11.5047 80.9859 11.35 81.6433 11.35C82.7646 11.35 83.7699 11.64 84.6593 12.22C85.2006 12.6067 85.4713 13.3607 85.4713 14.482C85.4713 15.4487 85.2973 16.6087 84.9493 17.962C84.6013 19.3153 84.1373 20.7267 83.5573 22.196C83.0159 23.6267 82.4166 25.0187 81.7593 26.372L80.7153 28.46C80.5993 28.808 80.5413 29.1753 80.5413 29.562C80.5413 30.0647 80.6573 30.5093 80.8893 30.896C81.1213 31.2827 81.4499 31.476 81.8753 31.476C82.4553 31.476 83.1126 30.9733 83.8473 29.968C84.3886 29.3107 84.8913 28.5567 85.3553 27.706C85.8579 26.8167 86.3026 25.9853 86.6893 25.212C87.0759 24.4387 87.3659 23.878 87.5593 23.53C87.6753 23.2593 87.8879 23.124 88.1973 23.124C88.4679 23.124 88.6999 23.2207 88.8933 23.414C89.0866 23.6073 89.1059 23.8587 88.9513 24.168C88.6033 24.8253 88.1586 25.6567 87.6173 26.662C87.1146 27.6673 86.5346 28.6727 85.8773 29.678C85.2586 30.6447 84.5819 31.4373 83.8473 32.056C83.1513 32.636 82.4746 32.926 81.8173 32.926C81.2373 32.926 80.7153 32.752 80.2513 32.404C79.8259 32.0173 79.5166 31.5533 79.3233 31.012C78.3179 32.5973 77.0806 33.912 75.6113 34.956C74.1419 36 72.1893 36.522 69.7533 36.522ZM68.7673 34.144C69.3086 34.144 69.9853 33.6607 70.7973 32.694C71.6093 31.6887 72.4406 30.432 73.2913 28.924C74.1419 27.3773 74.9346 25.7533 75.6693 24.052C76.4039 22.3507 76.9646 20.746 77.3513 19.238C77.7766 17.73 77.9506 16.5507 77.8733 15.7C77.3706 16.2413 76.7906 16.918 76.1333 17.73C75.5146 18.5033 74.8766 19.354 74.2193 20.282C74.1419 20.398 73.8713 20.8233 73.4073 21.558C72.9819 22.254 72.4599 23.1433 71.8413 24.226C71.2226 25.27 70.6233 26.372 70.0433 27.532C69.4633 28.692 68.9799 29.7747 68.5933 30.78C68.2066 31.7853 68.0133 32.5973 68.0133 33.216C68.0133 33.8347 68.2646 34.144 68.7673 34.144ZM91.2912 36.464C89.8992 36.464 88.6425 36.0773 87.5212 35.304C86.3999 34.492 85.8392 33.1773 85.8392 31.36C85.8392 30.1613 86.0325 28.7693 86.4192 27.184C86.8445 25.5987 87.3665 23.9747 87.9852 22.312C88.6039 20.6107 89.2419 19.0447 89.8992 17.614C90.5952 16.1447 91.2139 14.946 91.7552 14.018C92.6059 12.6647 93.5532 11.8333 94.5972 11.524C95.6799 11.2147 96.9945 11.06 98.5412 11.06C99.6625 11.06 100.591 11.1953 101.325 11.466C102.06 11.698 102.176 11.9687 101.673 12.278C100.939 12.7807 99.9912 13.902 98.8312 15.642C97.6712 17.382 96.5499 19.3347 95.4672 21.5C95.1579 22.1187 94.7712 22.95 94.3072 23.994C93.8432 24.9993 93.3792 26.082 92.9152 27.242C92.4899 28.3633 92.1225 29.446 91.8132 30.49C91.5039 31.4953 91.3492 32.3267 91.3492 32.984C91.3492 33.9507 91.7939 34.434 92.6832 34.434C93.6112 34.434 94.6552 33.9893 95.8152 33.1C96.3565 32.6747 96.8592 32.1913 97.3232 31.65C97.7872 31.1087 98.2125 30.5673 98.5992 30.026C99.3725 28.982 100.069 27.8607 100.687 26.662C101.345 25.4247 101.944 24.2647 102.485 23.182C102.601 22.95 102.756 22.834 102.949 22.834C103.22 22.834 103.452 22.9693 103.645 23.24C103.839 23.5107 103.858 23.8007 103.703 24.11C103.123 25.27 102.408 26.6427 101.557 28.228C100.707 29.7747 99.7205 31.2053 98.5992 32.52C97.6325 33.6413 96.5305 34.5887 95.2932 35.362C94.0945 36.0967 92.7605 36.464 91.2912 36.464ZM99.5852 8.16C98.9279 8.16 98.4059 7.94733 98.0192 7.522C97.6325 7.058 97.4392 6.45867 97.4392 5.724C97.4392 4.83467 97.6712 4.02267 98.1352 3.288C98.5992 2.55333 99.1792 1.954 99.8752 1.49C100.571 1.026 101.287 0.793997 102.021 0.793997C102.679 0.793997 103.201 1.026 103.587 1.49C103.974 1.91533 104.167 2.45666 104.167 3.114C104.167 3.96467 103.935 4.77667 103.471 5.55C103.007 6.32333 102.427 6.96133 101.731 7.464C101.035 7.928 100.32 8.16 99.5852 8.16ZM106.018 36.464C104.626 36.464 103.369 36.0773 102.248 35.304C101.126 34.492 100.566 33.1967 100.566 31.418C100.566 30.026 100.836 28.3247 101.378 26.314C101.919 24.3033 102.634 22.254 103.524 20.166C104.413 18.0393 105.38 16.1253 106.424 14.424H103.93C103.698 14.424 103.582 14.3273 103.582 14.134C103.582 13.9793 103.678 13.8053 103.872 13.612C104.065 13.38 104.297 13.2253 104.568 13.148C105.186 12.9547 105.979 12.6067 106.946 12.104C107.951 11.5627 108.995 10.944 110.078 10.248C111.16 9.552 112.185 8.856 113.152 8.16C114.118 7.464 114.892 6.86466 115.472 6.362C115.82 6.05266 116.187 5.84 116.574 5.724C116.999 5.608 117.405 5.55 117.792 5.55C118.449 5.55 118.952 5.666 119.3 5.898C119.648 6.13 119.648 6.362 119.3 6.594C118.99 6.78733 118.565 7.27066 118.024 8.044C117.482 8.81733 116.922 9.668 116.342 10.596C115.8 11.524 115.317 12.3553 114.892 13.09H119.3C119.377 13.09 119.416 13.148 119.416 13.264C119.416 13.4573 119.338 13.7087 119.184 14.018C119.029 14.2887 118.874 14.424 118.72 14.424H114.138C113.364 15.7773 112.514 17.324 111.586 19.064C110.658 20.804 109.768 22.5827 108.918 24.4C108.106 26.1787 107.429 27.8413 106.888 29.388C106.346 30.896 106.076 32.0947 106.076 32.984C106.076 33.9507 106.52 34.434 107.41 34.434C108.338 34.434 109.382 33.9893 110.542 33.1C111.508 32.288 112.417 31.2827 113.268 30.084C114.08 28.9627 114.795 27.8027 115.414 26.604C116.071 25.4053 116.612 24.3807 117.038 23.53C117.192 23.2593 117.405 23.124 117.676 23.124C117.946 23.124 118.159 23.24 118.314 23.472C118.507 23.6653 118.526 23.9167 118.372 24.226C117.792 25.386 117.057 26.7393 116.168 28.286C115.278 29.8327 114.331 31.244 113.326 32.52C112.514 33.5253 111.721 34.2987 110.948 34.84C110.213 35.3427 109.42 35.7293 108.57 36C107.758 36.3093 106.907 36.464 106.018 36.464ZM120.744 36.464C119.352 36.464 118.096 36.0773 116.974 35.304C115.853 34.492 115.292 33.1773 115.292 31.36C115.292 30.1613 115.486 28.7693 115.872 27.184C116.298 25.5987 116.82 23.9747 117.438 22.312C118.057 20.6107 118.695 19.0447 119.352 17.614C120.048 16.1447 120.667 14.946 121.208 14.018C122.059 12.6647 123.006 11.8333 124.05 11.524C125.133 11.2147 126.448 11.06 127.994 11.06C129.116 11.06 130.044 11.1953 130.778 11.466C131.513 11.698 131.629 11.9687 131.126 12.278C130.392 12.7807 129.444 13.902 128.284 15.642C127.124 17.382 126.003 19.3347 124.92 21.5C124.611 22.1187 124.224 22.95 123.76 23.994C123.296 24.9993 122.832 26.082 122.368 27.242C121.943 28.3633 121.576 29.446 121.266 30.49C120.957 31.4953 120.802 32.3267 120.802 32.984C120.802 33.9507 121.247 34.434 122.136 34.434C123.064 34.434 124.108 33.9893 125.268 33.1C125.81 32.6747 126.312 32.1913 126.776 31.65C127.24 31.1087 127.666 30.5673 128.052 30.026C128.826 28.982 129.522 27.8607 130.14 26.662C130.798 25.4247 131.397 24.2647 131.938 23.182C132.054 22.95 132.209 22.834 132.402 22.834C132.673 22.834 132.905 22.9693 133.098 23.24C133.292 23.5107 133.311 23.8007 133.156 24.11C132.576 25.27 131.861 26.6427 131.01 28.228C130.16 29.7747 129.174 31.2053 128.052 32.52C127.086 33.6413 125.984 34.5887 124.746 35.362C123.548 36.0967 122.214 36.464 120.744 36.464ZM129.038 8.16C128.381 8.16 127.859 7.94733 127.472 7.522C127.086 7.058 126.892 6.45867 126.892 5.724C126.892 4.83467 127.124 4.02267 127.588 3.288C128.052 2.55333 128.632 1.954 129.328 1.49C130.024 1.026 130.74 0.793997 131.474 0.793997C132.132 0.793997 132.654 1.026 133.04 1.49C133.427 1.91533 133.62 2.45666 133.62 3.114C133.62 3.96467 133.388 4.77667 132.924 5.55C132.46 6.32333 131.88 6.96133 131.184 7.464C130.488 7.928 129.773 8.16 129.038 8.16ZM138.255 36.406C135.78 36.406 133.847 36 132.455 35.188C131.063 34.376 130.367 32.81 130.367 30.49C130.367 28.866 130.618 27.1647 131.121 25.386C131.662 23.5687 132.416 21.8093 133.383 20.108C134.35 18.4067 135.49 16.86 136.805 15.468C138.12 14.076 139.57 12.974 141.155 12.162C142.74 11.3113 144.422 10.886 146.201 10.886C147.361 10.886 148.463 10.9827 149.507 11.176C150.551 11.3693 151.402 11.814 152.059 12.51C152.716 13.1673 153.045 14.2113 153.045 15.642C153.045 17.15 152.639 19.1027 151.827 21.5C151.015 23.8973 149.913 26.2367 148.521 28.518C148.444 28.8273 148.405 29.1367 148.405 29.446C148.405 29.8713 148.482 30.2967 148.637 30.722C148.83 31.1473 149.159 31.36 149.623 31.36C150.242 31.36 150.88 30.9347 151.537 30.084C152.233 29.1173 152.948 27.9573 153.683 26.604C154.418 25.2507 154.978 24.1487 155.365 23.298C155.442 23.066 155.616 22.95 155.887 22.95C156.158 22.95 156.39 23.066 156.583 23.298C156.815 23.53 156.834 23.8007 156.641 24.11C156.332 24.69 155.926 25.502 155.423 26.546C154.92 27.5513 154.34 28.576 153.683 29.62C153.026 30.664 152.31 31.4953 151.537 32.114C150.957 32.578 150.338 32.81 149.681 32.81C148.908 32.81 148.328 32.636 147.941 32.288C147.554 31.9013 147.245 31.36 147.013 30.664C145.776 32.3267 144.403 33.6993 142.895 34.782C141.387 35.8647 139.84 36.406 138.255 36.406ZM137.153 34.608C137.578 34.608 138.158 34.0473 138.893 32.926C139.628 31.8047 140.42 30.374 141.271 28.634C142.122 26.8553 142.953 25.0573 143.765 23.24C143.92 22.9307 144.171 22.37 144.519 21.558C144.867 20.7073 145.234 19.7793 145.621 18.774C146.008 17.73 146.336 16.7247 146.607 15.758C146.878 14.7913 147.013 14.018 147.013 13.438C147.013 12.7807 146.82 12.452 146.433 12.452C146.085 12.452 145.64 12.8 145.099 13.496C144.558 14.1533 143.958 15.0233 143.301 16.106C142.644 17.1887 142.006 18.3487 141.387 19.586C140.768 20.8233 140.227 21.9833 139.763 23.066C139.299 24.1487 138.816 25.3667 138.313 26.72C137.81 28.0733 137.385 29.3687 137.037 30.606C136.728 31.8047 136.573 32.7713 136.573 33.506C136.573 34.2407 136.766 34.608 137.153 34.608ZM168.895 36.464C166.923 36.464 165.589 35.9227 164.893 34.84C164.197 33.7573 163.849 32.5007 163.849 31.07C163.849 30.026 163.965 28.982 164.197 27.938C164.429 26.894 164.68 25.966 164.951 25.154C165.221 24.342 165.415 23.7813 165.531 23.472C165.995 22.08 166.478 20.746 166.981 19.47C167.522 18.1553 167.928 17.2467 168.199 16.744C168.083 16.9373 167.657 17.498 166.923 18.426C166.188 19.354 165.318 20.514 164.313 21.906C163.346 23.2593 162.379 24.7093 161.413 26.256C160.446 27.764 159.634 29.2333 158.977 30.664C158.358 32.056 158.049 33.2547 158.049 34.26C158.049 34.956 158.203 35.4587 158.513 35.768C158.629 35.884 158.687 35.9807 158.687 36.058C158.687 36.2513 158.474 36.3093 158.049 36.232C157.159 36.0773 156.289 35.9227 155.439 35.768C154.588 35.5747 153.873 35.2073 153.293 34.666C152.751 34.086 152.481 33.1387 152.481 31.824C152.481 30.78 152.751 29.5233 153.293 28.054C153.834 26.546 154.472 24.9993 155.207 23.414C155.941 21.8287 156.579 20.3593 157.121 19.006C157.237 18.6967 157.43 18.2327 157.701 17.614C157.971 16.9567 158.242 16.28 158.513 15.584C158.822 14.8493 159.054 14.2113 159.209 13.67C159.363 13.09 159.402 12.7033 159.325 12.51C159.247 12.3553 159.209 12.2393 159.209 12.162C159.209 11.698 159.518 11.466 160.137 11.466C160.755 11.466 161.374 11.5627 161.993 11.756C162.65 11.9107 163.23 12.1813 163.733 12.568C164.274 12.9547 164.699 13.4187 165.009 13.96C165.318 14.5013 165.473 15.1007 165.473 15.758C165.473 16.1833 165.376 16.686 165.183 17.266C165.105 17.5367 164.931 17.904 164.661 18.368C164.429 18.7933 164.177 19.2573 163.907 19.76C163.636 20.2627 163.346 20.7847 163.037 21.326C162.766 21.8673 162.669 22.1573 162.747 22.196C163.713 20.4947 164.757 18.9093 165.879 17.44C167.039 15.932 168.083 14.6367 169.011 13.554C169.977 12.4713 170.615 11.6787 170.925 11.176C171.234 10.944 171.737 10.828 172.433 10.828C173.245 10.828 174.076 11.0793 174.927 11.582C175.777 12.0847 176.203 12.9933 176.203 14.308C176.203 15.3907 175.816 16.7053 175.043 18.252C173.38 21.4227 172.104 24.284 171.215 26.836C170.325 29.3493 169.881 31.2053 169.881 32.404C169.881 33.2547 170.113 33.68 170.577 33.68C171.118 33.68 171.737 33.332 172.433 32.636C173.129 31.94 173.786 31.1087 174.405 30.142C175.255 28.9047 176.029 27.59 176.725 26.198C177.459 24.806 177.962 23.8393 178.233 23.298C178.349 23.066 178.523 22.95 178.755 22.95C178.987 22.95 179.199 23.0853 179.393 23.356C179.625 23.588 179.663 23.8587 179.509 24.168C179.238 24.7093 178.832 25.4633 178.291 26.43C177.788 27.3967 177.208 28.4407 176.551 29.562C175.893 30.6447 175.178 31.6887 174.405 32.694C173.554 33.854 172.703 34.782 171.853 35.478C171.002 36.1353 170.016 36.464 168.895 36.464Z" fill="#161616"/>
<path d="M184.761 36.87C181.938 36.87 179.889 36.232 178.613 34.956C177.376 33.68 176.757 31.998 176.757 29.91C176.757 28.3247 177.086 26.5847 177.743 24.69C178.246 23.1433 178.922 21.5773 179.773 19.992C180.624 18.368 181.61 16.8793 182.731 15.526C183.852 14.134 185.09 13.032 186.443 12.22C187.796 11.3693 189.227 10.944 190.735 10.944C192.668 10.944 194.234 11.2533 195.433 11.872C196.67 12.452 197.289 13.4187 197.289 14.772C197.289 15.7773 196.883 17.034 196.071 18.542C194.988 20.63 193.403 22.3507 191.315 23.704C189.227 25.0573 186.888 25.8307 184.297 26.024C183.717 27.6093 183.369 28.9047 183.253 29.91C183.214 30.1033 183.195 30.2967 183.195 30.49C183.195 30.6447 183.195 30.8187 183.195 31.012C183.195 32.288 183.485 33.216 184.065 33.796C184.645 34.3373 185.36 34.608 186.211 34.608C187.796 34.608 189.188 34.202 190.387 33.39C191.586 32.578 192.63 31.5533 193.519 30.316C194.447 29.0787 195.24 27.8413 195.897 26.604C196.284 25.908 196.612 25.27 196.883 24.69C197.154 24.0713 197.366 23.6267 197.521 23.356C197.714 23.0467 197.927 22.892 198.159 22.892C198.391 22.892 198.604 23.0273 198.797 23.298C198.99 23.53 199.01 23.8007 198.855 24.11C198.352 25.1153 197.656 26.4493 196.767 28.112C195.878 29.7747 194.872 31.244 193.751 32.52C192.514 33.9893 191.18 35.0913 189.749 35.826C188.357 36.522 186.694 36.87 184.761 36.87ZM185.051 24.342C186.791 23.6847 188.318 22.5053 189.633 20.804C190.986 19.1027 191.895 17.2273 192.359 15.178C192.398 14.9847 192.417 14.8107 192.417 14.656C192.456 14.5013 192.475 14.3467 192.475 14.192C192.475 13.4187 192.243 13.032 191.779 13.032C191.392 13.032 190.986 13.3027 190.561 13.844C189.942 14.5787 189.285 15.584 188.589 16.86C187.893 18.0973 187.274 19.3153 186.733 20.514C186.192 21.7127 185.786 22.6213 185.515 23.24L185.051 24.342ZM206.104 36.464C204.171 36.464 202.798 35.9227 201.986 34.84C201.213 33.7187 200.826 32.4427 200.826 31.012C200.826 29.736 201.097 28.3247 201.638 26.778C202.179 25.1927 202.837 23.6073 203.61 22.022C204.422 20.398 205.253 18.8513 206.104 17.382C206.955 15.9127 207.689 14.598 208.308 13.438C207.921 13.5153 207.515 13.5927 207.09 13.67C206.703 13.7087 206.317 13.728 205.93 13.728C205.041 13.728 204.267 13.5927 203.61 13.322C203.571 13.4767 203.513 13.6313 203.436 13.786C203.359 13.9407 203.301 14.0567 203.262 14.134C202.411 16.3767 201.503 18.5613 200.536 20.688C199.569 22.8147 198.699 24.5547 197.926 25.908C197.423 26.7973 196.979 27.242 196.592 27.242C196.283 27.242 196.128 27.01 196.128 26.546C196.128 26.2367 196.205 25.9467 196.36 25.676C197.133 24.2067 198.023 22.3507 199.028 20.108C200.072 17.8653 201.019 15.584 201.87 13.264C201.909 13.1867 201.947 13.0513 201.986 12.858C202.063 12.626 202.121 12.4327 202.16 12.278C201.657 11.6593 201.406 10.8473 201.406 9.842C201.406 9.18467 201.58 8.54667 201.928 7.928C202.276 7.27066 202.817 6.942 203.552 6.942C203.977 6.942 204.364 7.09666 204.712 7.406C205.099 7.71533 205.292 8.19867 205.292 8.856C205.292 9.62933 205.021 10.48 204.48 11.408C204.557 11.6787 204.809 11.8913 205.234 12.046C205.659 12.162 206.123 12.22 206.626 12.22C207.167 12.22 207.689 12.1427 208.192 11.988C208.733 11.8333 209.101 11.6013 209.294 11.292C209.642 10.828 210.222 10.596 211.034 10.596C211.73 10.596 212.503 10.7893 213.354 11.176C213.818 11.408 214.205 11.756 214.514 12.22C214.823 12.6453 214.978 13.1867 214.978 13.844C214.978 15.004 214.475 16.4733 213.47 18.252C212.387 20.2627 211.266 22.428 210.106 24.748C208.985 27.068 208.153 29.156 207.612 31.012C207.457 31.5147 207.38 31.998 207.38 32.462C207.38 33.274 207.631 33.68 208.134 33.68C208.675 33.68 209.275 33.332 209.932 32.636C210.628 31.94 211.305 31.1087 211.962 30.142C212.813 28.9047 213.586 27.59 214.282 26.198C215.017 24.806 215.519 23.8393 215.79 23.298C215.906 23.066 216.08 22.95 216.312 22.95C216.544 22.95 216.757 23.0853 216.95 23.356C217.182 23.588 217.221 23.8587 217.066 24.168C216.563 25.212 215.867 26.5653 214.978 28.228C214.089 29.852 213.083 31.3793 211.962 32.81C211.15 33.854 210.261 34.724 209.294 35.42C208.327 36.116 207.264 36.464 206.104 36.464Z" fill="black"/>
</svg>
